<svg xmlns="http://www.w3.org/2000/svg" viewBox="0 0 368.76 118.24"><defs><style>.cls-1{opacity:0.15;}.cls-2{fill:#fff;}</style></defs><title>Recurso 10</title><g id="Capa_2" data-name="Capa 2"><g id="Layer_1" data-name="Layer 1"><g class="cls-1"><path class="cls-2" d="M23.06,20V49.88H63.94V67.54H23.06V98.61H68.85v18.48H0V1.63H68.85V20Z"/><path class="cls-2" d="M173.84,101.8a31.75,31.75,0,0,1-13.08,11.94q-8.67,4.5-21.1,4.5a54.71,54.71,0,0,1-21.91-4.17,37,37,0,0,1-15.46-12,34.66,34.66,0,0,1-6.62-18.32H120.2a18.67,18.67,0,0,0,5.64,11.69q4.83,4.67,12.84,4.66c4.8,0,8.47-1.28,11-3.84a13.39,13.39,0,0,0,3.84-9.89,13,13,0,0,0-3.11-8.92,22.72,22.72,0,0,0-7.84-5.64q-4.76-2.12-13.09-4.9a128.47,128.47,0,0,1-17.66-7.12,32.54,32.54,0,0,1-11.69-10.22q-4.83-6.7-4.83-17.5,0-14.88,10.71-23.46T134.43,0q18.31,0,29.19,8.83T176,32.38H151.11a17.37,17.37,0,0,0-5.23-10.22q-4.26-4-11.62-4-6.37,0-10.3,3.36T120,31.24a12.08,12.08,0,0,0,3,8.42,23.22,23.22,0,0,0,7.69,5.48,124.85,124.85,0,0,0,12.67,4.74,169.09,169.09,0,0,1,18.07,7.36,31.78,31.78,0,0,1,11.86,10.3q4.91,6.87,4.91,18A31.33,31.33,0,0,1,173.84,101.8Z"/><path class="cls-2" d="M268.52,117.09l-27-45H231.4v45H208.34V1.63h44q20.11,0,30.67,9.82t10.54,25.84q0,13.08-7.27,21.91T265.25,71L294,117.09ZM231.4,56.26h19q19.78,0,19.79-17.5,0-8.34-4.82-13t-15-4.66h-19Z"/></g><path class="cls-2" d="M236.2,44.88V59.52h20v8.64h-20v15.2h22.4v9H224.92V35.92H258.6v9Z"/><path class="cls-2" d="M310,84.92a15.49,15.49,0,0,1-6.4,5.84A22.17,22.17,0,0,1,293.24,93a26.79,26.79,0,0,1-10.72-2A18.08,18.08,0,0,1,275,85a17,17,0,0,1-3.24-9h12a9.21,9.21,0,0,0,2.76,5.72,8.66,8.66,0,0,0,6.28,2.28,7.31,7.31,0,0,0,5.4-1.88A6.56,6.56,0,0,0,300,77.36,6.36,6.36,0,0,0,298.52,73a11,11,0,0,0-3.84-2.76q-2.32-1-6.4-2.4a62.42,62.42,0,0,1-8.64-3.48,15.94,15.94,0,0,1-5.72-5,14.36,14.36,0,0,1-2.36-8.56,13.93,13.93,0,0,1,5.24-11.48q5.24-4.2,13.88-4.2,9,0,14.28,4.32A16.29,16.29,0,0,1,311,51H298.84a8.45,8.45,0,0,0-2.56-5,7.94,7.94,0,0,0-5.68-2,7.51,7.51,0,0,0-5,1.64,5.91,5.91,0,0,0-1.92,4.76,5.9,5.9,0,0,0,1.48,4.12,11.33,11.33,0,0,0,3.76,2.68,62,62,0,0,0,6.2,2.32,82.43,82.43,0,0,1,8.84,3.6,15.55,15.55,0,0,1,5.8,5,14.8,14.8,0,0,1,2.4,8.8A15.32,15.32,0,0,1,310,84.92Z"/><path class="cls-2" d="M356.28,92.4l-13.2-22h-5v22H326.84V35.92h21.52q9.84,0,15,4.8t5.16,12.64A16.31,16.31,0,0,1,365,64.08q-3.57,4.32-10.28,5.76L368.76,92.4ZM338.12,62.64h9.28q9.68,0,9.68-8.56a8.44,8.44,0,0,0-2.36-6.36q-2.37-2.28-7.32-2.28h-9.28Z"/></g></g></svg>